<svg xmlns="http://www.w3.org/2000/svg" viewBox="0 0 64 64" role="img" aria-label="FinSentinel">
  <defs>
    <linearGradient id="badge" x1="0" x2="1" y1="0" y2="1">
      <stop offset="0" stop-color="#6AE7C7" stop-opacity="0.9"/>
      <stop offset="0.55" stop-color="#FFFFFF" stop-opacity="0.10"/>
      <stop offset="1" stop-color="#FF5A69" stop-opacity="0.55"/>
    </linearGradient>
    <radialGradient id="glass" cx="28%" cy="24%" r="80%">
      <stop offset="0" stop-color="#FFFFFF" stop-opacity="0.22"/>
      <stop offset="0.5" stop-color="#FFFFFF" stop-opacity="0.06"/>
      <stop offset="1" stop-color="#FFFFFF" stop-opacity="0"/>
    </radialGradient>
  </defs>

  <circle cx="32" cy="32" r="26" fill="url(#badge)" opacity="0.9"/>
  <circle cx="32" cy="32" r="26" fill="url(#glass)"/>
  <circle cx="32" cy="32" r="26" fill="none" stroke="#FFFFFF" stroke-opacity="0.35" stroke-width="1.2"/>

  <g opacity="0.55" stroke="#FFFFFF" stroke-opacity="0.26" stroke-width="1">
    <path d="M18 24h28" stroke-linecap="round"/>
    <path d="M18 32h28" stroke-linecap="round"/>
    <path d="M18 40h28" stroke-linecap="round"/>
    <path d="M24 18v28" stroke-linecap="round"/>
    <path d="M32 18v28" stroke-linecap="round"/>
    <path d="M40 18v28" stroke-linecap="round"/>
  </g>

  <path d="M18 40c5-7 8-6 12-12s8-4 12-8 6-5 10-2"
        fill="none" stroke="#6AE7C7" stroke-opacity="0.92" stroke-width="2.2"
        stroke-linecap="round" stroke-linejoin="round"/>
  <g fill="#6AE7C7" fill-opacity="0.95">
    <circle cx="18" cy="40" r="1.6"/>
    <circle cx="30" cy="28" r="1.6"/>
    <circle cx="42" cy="20" r="1.6"/>
    <circle cx="52" cy="18" r="1.6"/>
  </g>

  <path d="M18 22c3.5-3 8.5-3 12 0-3.5 3-8.5 3-12 0Z"
        fill="#FF5A69" fill-opacity="0.20" stroke="#FF5A69" stroke-opacity="0.55" stroke-width="1"/>
  <circle cx="24" cy="22" r="1.4" fill="#FF5A69" fill-opacity="0.9"/>
</svg>
